<svg display="none" xmlns="http://www.w3.org/2000/svg">

  <symbol id ='expand-more'>
    <path d="M11.3301 0.578125L12.7363 1.98438L6.73633 7.98438L0.736328 1.98438L2.14258 0.578125L6.73633 5.17188L11.3301 0.578125Z"/>
  </symbol>

  <symbol id='phone'>
    <path d="M0.766667 5.50834C1.39896 8.37759 2.83884 11.0061 4.91638 13.0836C6.99393 15.1612 9.62242 16.601 12.4917 17.2333C13.3936 17.415 14.3308 17.2556 15.1221 16.7861C15.9133 16.3166 16.5022 15.5703 16.775 14.6917L17.2 13.3583L13.0333 11.2833L11.05 13.2667C9.64082 12.6594 8.3555 11.7978 7.25833 10.725C6.20046 9.62438 5.35314 8.33929 4.75833 6.93334L6.71667 4.95001L4.64167 0.78334L3.30833 1.20834C2.42623 1.48129 1.67731 2.07282 1.20746 2.86772C0.737613 3.66261 0.580479 4.60394 0.766667 5.50834V5.50834Z"  />
  </symbol>

  <symbol id='person'>
    <path d="M7.00001 7.33334C7.65928 7.33334 8.30375 7.13784 8.85191 6.77157C9.40007 6.4053 9.82732 5.8847 10.0796 5.27562C10.3319 4.66653 10.3979 3.99631 10.2693 3.34971C10.1407 2.7031 9.82321 2.10916 9.35703 1.64298C8.89086 1.17681 8.29691 0.85934 7.65031 0.730722C7.00371 0.602105 6.33349 0.668116 5.7244 0.920408C5.11531 1.1727 4.59472 1.59994 4.22844 2.14811C3.86217 2.69627 3.66668 3.34074 3.66668 4.00001C3.66668 4.88406 4.01787 5.73191 4.64299 6.35703C5.26811 6.98215 6.11596 7.33334 7.00001 7.33334ZM13.425 12.5C11.7192 10.7993 9.40874 9.84434 7.00001 9.84434C4.59128 9.84434 2.2808 10.7993 0.57501 12.5L0.333344 12.75V16.5H13.6667V12.75L13.425 12.5Z" />
  </symbol>

  <symbol id="tick" >
    <path d="M1.16666 4.58334L4.91666 8.33334L12.4167 0.833344" stroke="" stroke-width="1.8"/>
  </symbol >
</svg>
